<?xml version="1.0" encoding="UTF-8"?>
<svg width="18px" height="18px" viewBox="0 0 18 18" version="1.1" xmlns="http://www.w3.org/2000/svg">
    <g stroke="none" stroke-width="1" fill="none" fill-rule="evenodd">
        <path d="M17.64,9.20454545 C17.64,4.12363636 13.8763636,0 9,0 C4.12363636,0 0.36,4.12363636 0.36,9.20454545 C0.36,13.8 3.9,17.55 8.4,18 L8.4,11.7 L5.4,11.7 L5.4,9.20454545 L8.4,9.20454545 L8.4,7.2 C8.4,4.95 9.9,3.6 12,3.6 C13.05,3.6 14.1,3.75 14.1,3.75 L14.1,5.85 L12.9,5.85 C11.7,5.85 11.4,6.6 11.4,7.35 L11.4,9.20454545 L14.1,9.20454545 L13.65,11.7 L11.4,11.7 L11.4,18 C15.9,17.55 17.64,13.8 17.64,9.20454545" fill="#1877F2"></path>
    </g>
</svg> 